:SAMPLES-PER-SECOND 30
:FULLY-SPECIFIED
:DEGREES
436
root  -1.31785 35.7099 -0.903588 -59.1003 -74.4859 51.296
RightUpLeg  -8.99577 -11.0565 -36.9934
RightLeg  43.1608 -4.10909 -4.42204
RightFoot  -11.4646 -0.0549379 21.6623
RightToes  -6.40286e-010 0 -3.6325e-017
Spine  14.4664 -1.27902 15.0872
Spine1  -1.95668 2.80753 -16.0417
HEad  0.243454 -5.32234 -11.5979
LeftShoulder1  1.78567 -3.24523 -19.9967
LeftArm  14.6531 26.7949 -44.8732
LeftForeArm  3.1829 -22.1409 -5.17417
LeftHand  0.497051 6.7206 40.1758
RightShoulder  0.676631 -0.0271406 12.4961
RightArm  -30.4522 -17.9918 18.2245
RightForeArm  48.7428 76.4457 47.3823
RightHand  -0.787051 -2.46591 -30.7155
LeftUpLeg  -13.7095 11.7723 15.094
LeftLeg  36.6034 -9.839 -7.40075
LeftFoot  5.7498 4.99659 -32.6258
LeftToes  -2.09187e-010 -4.93792e-011 -8.21189e-011
437
root  -1.51649 36.1334 0.140981 -53.7666 -72.6393 45.2502
RightUpLeg  -3.62767 -12.2833 -39.7206
RightLeg  37.2215 -4.96943 -4.29272
RightFoot  -7.79047 -0.774056 22.8632
RightToes  -6.40286e-010 0 -3.6325e-017
Spine  13.9125 -0.192676 16.4045
Spine1  -1.32156 4.61454 -19.339
HEad  1.53628 -11.7787 -8.62678
LeftShoulder1  1.6347 -2.85228 -19.2053
LeftArm  10.5987 29.5826 -45.4346
LeftForeArm  -6.41657 -23.6348 -5.38909
LeftHand  0.222038 6.02959 37.0169
RightShoulder  0.736823 0.309529 12.3264
RightArm  -26.0774 -21.2943 16.1707
RightForeArm  46.5488 74.9788 40.2008
RightHand  -0.88239 -2.14177 -30.9876
LeftUpLeg  -11.4526 6.63753 12.7392
LeftLeg  34.1715 -11.6222 -8.02912
LeftFoot  1.94924 3.65441 -30.7919
LeftToes  -2.09187e-010 -4.93792e-011 -8.21189e-011
438
root  -1.68754 36.4881 1.29573 -50.4122 -70.8899 41.5758
RightUpLeg  0.812666 -11.923 -42.0032
RightLeg  31.5971 -7.60545 -5.23575
RightFoot  -3.0268 -1.8216 24.355
RightToes  -6.40286e-010 0 -3.6325e-017
Spine  13.4427 0.92226 17.7459
Spine1  -1.10218 6.46962 -22.9914
HEad  2.52498 -18.0583 -5.8942
LeftShoulder1  1.50528 -2.43906 -18.784
LeftArm  5.27124 31.6361 -44.7105
LeftForeArm  -15.9392 -25.4106 -6.21429
LeftHand  0.2428 6.12722 35.5026
RightShoulder  0.792843 0.552188 12.5712
RightArm  -22.4538 -25.0198 15.6356
RightForeArm  44.7595 73.5169 35.1515
RightHand  -0.951145 -1.88781 -30.9801
LeftUpLeg  -9.2876 2.39848 10.0396
LeftLeg  31.8407 -12.8107 -8.12092
LeftFoot  -2.08574 2.46239 -29.6573
LeftToes  -2.09187e-010 -4.93792e-011 -8.21189e-011
439
root  -1.76684 36.8 2.44337 -49.7719 -69.75 41.1768
RightUpLeg  2.95238 -8.75637 -43.0838
RightLeg  27.5458 -12.6244 -7.2709
RightFoot  2.78344 -3.08835 24.7568
RightToes  -6.40286e-010 0 -3.6325e-017
Spine  13.5529 2.33285 19.158
Spine1  -1.56047 8.65507 -27.6241
HEad  3.38592 -23.933 -3.63311
LeftShoulder1  1.33272 -1.80086 -18.5553
LeftArm  -0.922924 32.5292 -43.3574
LeftForeArm  -26.9187 -27.2246 -7.11969
LeftHand  0.399948 6.69339 33.9979
RightShoulder  0.862315 0.774376 13.2446
RightArm  -20.0928 -29.4609 16.273
RightForeArm  42.4845 72.6653 33.1413
RightHand  -1.04272 -1.4803 -30.4574
LeftUpLeg  -7.54461 1.67151 7.1277
LeftLeg  29.6767 -12.8195 -7.4608
LeftFoot  -4.82457 1.65223 -27.9972
LeftToes  -2.09187e-010 -4.93792e-011 -8.21189e-011
440
root  -1.7412 37.0636 3.53878 -50.8436 -69.1515 42.7021
RightUpLeg  3.0763 -4.01156 -43.3277
RightLeg  25.7228 -19.1215 -9.96795
RightFoot  9.15882 -3.90095 21.779
RightToes  -6.40286e-010 0 -3.6325e-017
Spine  14.4248 3.81904 20.1666
Spine1  -2.55573 10.777 -32.1899
HEad  4.11773 -28.991 -1.99066
LeftShoulder1  1.07053 -0.818111 -18.1591
LeftArm  -8.82028 32.533 -42.6415
LeftForeArm  -39.7521 -29.1396 -8.04997
LeftHand  0.642938 7.67256 31.7205
RightShoulder  0.937664 0.993357 14.0111
RightArm  -19.2743 -34.1725 18.2599
RightForeArm  38.4338 71.9898 32.2355
RightHand  -1.14428 -0.851576 -28.8661
LeftUpLeg  -6.28042 3.93323 4.38004
LeftLeg  28.0571 -12.5845 -6.84596
LeftFoot  -6.65207 1.09972 -25.4979
LeftToes  -2.09187e-010 -4.93792e-011 -8.21189e-011
441
root  -1.64339 37.2269 4.59884 -51.6949 -68.6941 43.6952
RightUpLeg  2.66071 -0.734922 -43.5726
RightLeg  25.4458 -25.8684 -12.9305
RightFoot  15.7358 -3.48008 14.9141
RightToes  -6.40286e-010 0 -3.6325e-017
Spine  15.7004 4.84413 20.5443
Spine1  -3.62599 12.1963 -35.3494
HEad  4.43199 -32.8819 -0.841351
LeftShoulder1  0.759772 0.364084 -17.5302
LeftArm  -18.2263 32.1272 -43.1962
LeftForeArm  -53.4242 -31.2989 -8.96086
LeftHand  1.0555 9.33823 30.1667
RightShoulder  1.01316 1.20887 14.7235
RightArm  -19.7362 -38.2533 21.6517
RightForeArm  32.3863 70.634 30.2528
RightHand  -1.23441 -0.123707 -26.9238
LeftUpLeg  -5.49607 6.27265 2.12117
LeftLeg  27.5811 -12.8372 -6.84864
LeftFoot  -8.40226 0.649593 -23.1214
LeftToes  -2.09187e-010 -4.93792e-011 -8.21189e-011
442
root  -1.50768 37.2765 5.58574 -51.5385 -68.4592 43.4747
RightUpLeg  2.2909 -0.687775 -44.0028
RightLeg  25.4518 -32.2471 -15.624
RightFoot  21.9043 -1.9571 7.0426
RightToes  -6.40286e-010 0 -3.6325e-017
Spine  16.9366 5.30993 20.4943
Spine1  -4.60496 12.8128 -37.0896
HEad  4.05627 -35.4422 0.122069
LeftShoulder1  0.491325 1.4187 -16.8436
LeftArm  -27.6921 31.6972 -44.649
LeftForeArm  -64.8371 -34.0967 -9.91071
LeftHand  1.50874 11.0071 30.3274
RightShoulder  1.09095 1.42069 15.4417
RightArm  -20.4318 -41.283 25.8805
RightForeArm  26.5566 68.7663 27.5725
RightHand  -1.35799 0.541681 -26.3176
LeftUpLeg  -5.25933 7.18285 0.503222
LeftLeg  28.1149 -13.1001 -7.14759
LeftFoot  -10.4267 0.236836 -21.8298
LeftToes  -2.09187e-010 -4.93792e-011 -8.21189e-011
443
root  -1.34635 37.2345 6.42829 -51.1399 -68.9741 43.3984
RightUpLeg  1.15146 -3.20435 -44.3633
RightLeg  25.4883 -36.789 -17.4245
RightFoot  26.2712 -0.589547 2.22922
RightToes  -6.40286e-010 0 -3.6325e-017
Spine  17.9043 5.58511 20.2207
Spine1  -5.64666 13.0034 -38.1323
HEad  2.822 -36.6179 1.24546
LeftShoulder1  0.331373 2.06894 -16.3401
LeftArm  -34.9284 31.426 -46.0273
LeftForeArm  -70.2439 -38.126 -11.2054
LeftHand  1.75983 11.7359 31.2342
RightShoulder  1.15878 1.57992 16.1441
RightArm  -20.3515 -43.4298 30.2727
RightForeArm  23.9248 67.4717 25.8216
RightHand  -1.51374 0.913416 -27.5709
LeftUpLeg  -5.86331 7.64333 -0.458272
LeftLeg  29.2842 -12.7183 -7.27051
LeftFoot  -12.844 -0.203899 -21.1702
LeftToes  -2.09187e-010 -4.93792e-011 -8.21189e-011
444
root  -1.16181 37.131 7.09017 -51.6471 -70.2642 44.6873
RightUpLeg  -1.3351 -5.898 -44.3675
RightLeg  26.2393 -37.9177 -18.3684
RightFoot  28.4883 -0.332127 1.46663
RightToes  -6.40286e-010 0 -3.6325e-017
Spine  18.5403 5.84032 19.3381
Spine1  -6.48817 12.9843 -38.4465
HEad  0.447978 -36.3363 2.84474
LeftShoulder1  0.287319 2.25498 -16.2269
LeftArm  -38.6138 31.1671 -46.4033
LeftForeArm  -67.9943 -43.4589 -13.1584
LeftHand  1.80274 11.5611 32.7821
RightShoulder  1.19502 1.62302 16.708
RightArm  -19.3555 -44.6752 34.6584
RightForeArm  25.7185 67.1967 25.1317
RightHand  -1.64382 0.98648 -29.5216
LeftUpLeg  -7.26937 8.27344 -1.06
LeftLeg  30.9205 -11.4409 -6.95548
LeftFoot  -15.236 -0.60226 -20.2131
LeftToes  -2.09187e-010 -4.93792e-011 -8.21189e-011
445
root  -0.968248 36.9665 7.57249 -53.3922 -71.764 46.9209
RightUpLeg  -4.36054 -6.61829 -44.0739
RightLeg  27.9959 -36.244 -18.9493
RightFoot  29.8302 -0.61403 2.20447
RightToes  -6.40286e-010 0 -3.6325e-017
Spine  18.9103 5.83141 17.332
Spine1  -6.3749 12.6438 -37.3086
HEad  -3.18764 -34.5394 4.95094
LeftShoulder1  0.344172 2.01827 -16.3917
LeftArm  -39.5458 30.7211 -45.6396
LeftForeArm  -59.3954 -49.6026 -15.927
LeftHand  1.86812 11.1101 36.3164
RightShoulder  1.20088 1.57795 17.0599
RightArm  -17.6072 -44.6409 39.0356
RightForeArm  31.1596 67.1594 24.2457
RightHand  -1.71216 0.948247 -30.8675
LeftUpLeg  -8.82321 8.29741 -1.49056
LeftLeg  33.1148 -9.47795 -6.22708
LeftFoot  -16.9869 -0.83851 -18.8938
LeftToes  -2.09187e-010 -4.93792e-011 -8.21189e-011
446
root  -0.793721 36.7588 7.88796 -55.5563 -73.3197 48.674
RightUpLeg  -6.75893 -5.49901 -43.498
RightLeg  30.1556 -33.7223 -19.3599
RightFoot  31.2756 -0.725658 2.43794
RightToes  -6.40286e-010 0 -3.6325e-017
Spine  19.1001 5.45661 14.4003
Spine1  -5.00362 11.907 -34.5044
HEad  -7.3928 -31.3923 7.04073
LeftShoulder1  0.490108 1.3798 -16.322
LeftArm  -38.9903 30.3336 -44.3625
LeftForeArm  -46.6953 -56.2021 -19.8198
LeftHand  2.02474 10.7891 41.0666
RightShoulder  1.19451 1.53122 17.162
RightArm  -14.8398 -43.2841 43.0638
RightForeArm  38.7431 66.4291 22.1479
RightHand  -1.69989 0.824208 -31.2314
LeftUpLeg  -9.75996 7.44773 -1.33685
LeftLeg  35.6642 -7.40479 -5.29035
LeftFoot  -18.0629 -0.941312 -17.7319
LeftToes  -2.09187e-010 -4.93792e-011 -8.21189e-011
447
root  -0.657029 36.5539 8.0728 -57.3357 -75.4238 49.4712
RightUpLeg  -8.6225 -4.19138 -42.2374
RightLeg  32.262 -31.1883 -19.5628
RightFoot  32.8652 -0.886842 2.76516
RightToes  -6.40286e-010 0 -3.6325e-017
Spine  19.1138 5.01105 11.3406
Spine1  -3.05718 10.9167 -30.418
HEad  -10.8596 -27.4026 8.3402
LeftShoulder1  0.684645 0.463194 -15.7227
LeftArm  -37.0461 30.6 -42.9094
LeftForeArm  -29.9489 -63.2172 -25.8325
LeftHand  2.13548 10.5831 44.5393
RightShoulder  1.18192 1.49877 17.0556
RightArm  -10.8692 -41.1885 46.0787
RightForeArm  47.0845 64.7813 19.164
RightHand  -1.63794 0.693193 -30.7625
LeftUpLeg  -10.0806 6.47744 -0.157317
LeftLeg  38.2071 -5.50858 -4.23299
LeftFoot  -18.9986 -1.02082 -16.8423
LeftToes  -2.09187e-010 -4.93792e-011 -8.21189e-011
448
root  -0.556918 36.4105 8.14996 -58.5557 -78.371 49.7441
RightUpLeg  -10.6059 -4.01493 -40.0454
RightLeg  34.1508 -28.1541 -19.1648
RightFoot  34.4454 -1.32669 3.73114
RightToes  -6.40286e-010 0 -3.6325e-017
Spine  19.0008 4.80354 8.49529
Spine1  -1.49011 9.79733 -25.4164
HEad  -12.7828 -23.1633 8.47656
LeftShoulder1  0.863676 -0.454892 -14.95
LeftArm  -33.397 31.7029 -40.9926
LeftForeArm  -6.75234 -70.3493 -36.3362
LeftHand  2.1088 10.3386 45.9697
RightShoulder  1.17226 1.4634 17.028
RightArm  -6.34857 -39.0842 47.4677
RightForeArm  53.4859 62.521 16.3727
RightHand  -1.58239 0.665324 -29.8985
LeftUpLeg  -10.1566 5.68511 2.02459
LeftLeg  40.407 -3.56985 -2.8327
LeftFoot  -19.9242 -1.0924 -16.0511
LeftToes  -2.09187e-010 -4.93792e-011 -8.21189e-011
449
root  -0.483426 36.3493 8.13619 -59.4187 -81.7824 49.7466
RightUpLeg  -12.6577 -5.18285 -37.2476
RightLeg  35.6864 -24.1372 -17.697
RightFoot  36.1205 -1.7372 4.55015
RightToes  -6.40286e-010 0 -3.6325e-017
Spine  18.9823 4.80934 5.69632
Spine1  -0.568641 8.53859 -19.6899
HEad  -13.4646 -18.9782 7.67999
LeftShoulder1  0.984253 -1.11744 -14.3863
LeftArm  -28.4688 33.0144 -38.708
LeftForeArm  27.1222 -76.3492 -55.8726
LeftHand  1.83396 9.68217 46.0249
RightShoulder  1.18785 1.46327 17.3707
RightArm  -2.56186 -37.3581 47.2838
RightForeArm  54.8362 59.9962 14.3716
RightHand  -1.5157 0.545581 -29.2446
LeftUpLeg  -9.9508 4.73916 4.73615
LeftLeg  42.0854 -1.53547 -1.05472
LeftFoot  -20.5193 -1.12071 -15.4066
LeftToes  -2.09187e-010 -4.93792e-011 -8.21189e-011
450
root  -0.43632 36.3692 8.0567 -60.7544 -85.1207 50.0771
RightUpLeg  -14.2502 -7.12888 -34.3845
RightLeg  36.7201 -19.1944 -14.96
RightFoot  37.3966 -2.0482 5.12036
RightToes  -6.40286e-010 0 -3.6325e-017
Spine  19.1284 4.83843 2.96573
Spine1  0.187711 7.1967 -13.7894
HEad  -13.6969 -14.8748 6.43355
LeftShoulder1  1.0435 -1.49841 -13.912
LeftArm  -23.0829 33.7379 -36.923
LeftForeArm  72.3601 -79.2441 -86.8779
LeftHand  1.41413 8.76251 45.1933
RightShoulder  1.22146 1.49133 17.9582
RightArm  -0.557232 -35.9892 46.4354
RightForeArm  51.7128 57.4695 13.0577
RightHand  -1.42846 0.260842 -28.9576
LeftUpLeg  -9.06954 3.69442 7.4544
LeftLeg  42.9808 0.27401 0.707844
LeftFoot  -20.6852 -1.1235 -15.1826
LeftToes  -2.09187e-010 -4.93792e-011 -8.21189e-011
